<?xml version="1.0" encoding="iso-8859-1"?>
<!-- Generator: Adobe Illustrator 18.1.1, SVG Export Plug-In . SVG Version: 6.00 Build 0)  -->
<svg xmlns="http://www.w3.org/2000/svg" xmlns:xlink="http://www.w3.org/1999/xlink" version="1.1" id="Capa_1" x="0px" y="0px" viewBox="0 0 270.391 270.391" style="enable-background:new 0 0 270.391 270.391;" xml:space="preserve" width="512px" height="512px">
<g>
	<path d="M110.454,195.418h44.813l-8.623-115.487c9.285,0,41.658,5.492,48.279,0   c2.596-2.159,0-22.507,0-26.273c0-6.247-14.534-3.062-19.625-3.062c-9.381,0-18.747,0-28.119,0c-1.172,0-0.535-16.717-0.535-18.443   c0-9.878,0-19.76,0-29.622c0-4.234-17.869-1.877-21.704-1.877c-8.901,0-9.319-1.76-9.319,6.952c0,10.869,0,21.704,0,32.588   c0,6.231,2.504,10.402-4.127,10.402c-11.817,0-23.62,0-35.446,0c-8.487,0-10.422-2.334-10.422,6.363   c0,2.242-0.515,22.974,0.457,22.974c17.081,0,34.187,0,51.254,0C115.044,118.4,112.759,156.913,110.454,195.418L110.454,195.418z" fill="#ffffff"/>
	<path d="M55.128,199.677c30.729,0,61.46,0,92.188,0c18.257,0,36.505,0,54.759,0c3.963,0,7.938,0,11.904,0   c1.401,0,3.84,18.117,5.645,32.65H50.77L55.128,199.677L55.128,199.677z" fill="#ffffff"/>
	<path d="M38.461,237.741c37.125,0,74.252,0,111.376,0c22.057,0,44.104,0,66.156,0c4.789,0,9.591,0,14.383,0   c1.693,0,4.641,18.117,6.819,32.65H33.197L38.461,237.741L38.461,237.741z" fill="#ffffff"/>
</g>
<g>
</g>
<g>
</g>
<g>
</g>
<g>
</g>
<g>
</g>
<g>
</g>
<g>
</g>
<g>
</g>
<g>
</g>
<g>
</g>
<g>
</g>
<g>
</g>
<g>
</g>
<g>
</g>
<g>
</g>
</svg>
